<svg id="Capa_1" enable-background="new 0 0 512 512" height="512" viewBox="0 0 512 512" width="512" xmlns="http://www.w3.org/2000/svg"><g><path d="m60 50h30v452h-30c-11.046 0-20-8.954-20-20v-412c0-11.046 8.954-20 20-20z" fill="#e38eba"/><path d="m90 50h292v452h-292z" fill="#f1c6dd" transform="matrix(-1 0 0 -1 472 552)"/><path d="m382 50v452s3-10 40-10c37.167 0 40 10 40 10v-452s-2.583 10-40 10c-37.333 0-40-10-40-10z" fill="#fff"/><path d="m20 339.173h221l78.332 70.087c6.442 5.764 16.668 1.191 16.668-7.452v-257.635c0-5.523-4.477-10-10-10h-306c-5.523 0-10 4.477-10 10v185c0 5.523 4.477 10 10 10z" fill="#ffcd69"/><path d="m492 215h-221l-78.332 70.087c-6.442 5.764-16.668 1.191-16.668-7.452v-257.635c0-5.523 4.477-10 10-10h306c5.523 0 10 4.477 10 10v185c0 5.523-4.477 10-10 10z" fill="#ffe6b4"/><g><circle cx="462" cy="390.18" r="10"/><path d="m422 335c-5.523 0-10 4.477-10 10v80c0 5.523 4.477 10 10 10s10-4.477 10-10v-80c0-5.523-4.477-10-10-10z"/><path d="m276 452h-80c-5.523 0-10 4.477-10 10s4.477 10 10 10h80c5.523 0 10-4.477 10-10s-4.477-10-10-10z"/><path d="m492 0h-306c-11.028 0-20 8.972-20 20v20h-106c-16.542 0-30 13.458-30 30v54.17h-10c-11.028 0-20 8.972-20 20v185c0 11.028 8.972 20 20 20h10v132.83c0 16.542 13.458 30 30 30h322c3.55 0 6.86-1.91 8.65-4.98.58-.42 2.32-1.49 6.19-2.53 4.2-1.13 12.145-2.49 25.265-2.49 18.92 0 27.055 2.84 29.605 4.06.82.38 1.33.7 1.61.91 1.78 3.1 5.1 5.03 8.68 5.03.46 0 .92-.03 1.38-.1 4.91-.68 8.62-4.94 8.62-9.9v-66.82c0-5.51-4.49-10-10-10s-10 4.49-10 10v49.89c-7.87-2.06-17.69-3.06-30-3.07-12.39.02-22.2 1.03-30 3.09v-260.09h20v70c0 5.523 4.477 10 10 10s10-4.477 10-10v-70h20v120.18c0 5.52 4.49 10 10 10s10-4.48 10-10v-120.18h20c11.028 0 20-8.972 20-20v-185c0-11.028-8.972-20-20-20zm-392 60h66v64.17h-66zm-50 10c0-5.514 4.486-10 10-10h20v64.17h-30zm-30 259.17v-185h146v133.464c0 7.998 4.536 14.993 11.836 18.258 2.674 1.195 5.472 1.781 8.239 1.781 4.789 0 9.482-1.754 13.26-5.134l75.486-67.539h51.179l-.005 176.805-78.327-70.087c-1.833-1.641-4.208-2.548-6.668-2.548zm60 162.83h-20c-5.514 0-10-4.486-10-10v-132.83h30zm292 0h-272v-142.83h137.179l75.484 67.543c3.778 3.378 8.469 5.131 13.258 5.131 2.768 0 5.569-.586 8.244-1.782 7.3-3.265 11.834-10.258 11.834-18.252v-176.81h26v267zm120-287h-221c-2.46 0-4.834.907-6.668 2.547l-78.332 70.087v-257.634h306l.013 185s-.004 0-.013 0z"/><path d="m289 140h-73c-5.523 0-10 4.477-10 10s4.477 10 10 10h73c5.523 0 10-4.477 10-10s-4.477-10-10-10z"/><path d="m362 100h-146c-5.523 0-10 4.477-10 10s4.477 10 10 10h146c5.523 0 10-4.477 10-10s-4.477-10-10-10z"/><path d="m362 60h-50c-5.51 0-10 4.49-10 10s4.49 10 10 10h50c5.51 0 10-4.49 10-10s-4.49-10-10-10z"/><path d="m216 80h51c5.51 0 10-4.49 10-10s-4.49-10-10-10h-51c-5.51 0-10 4.49-10 10s4.49 10 10 10z"/><path d="m50 244h64c5.523 0 10-4.477 10-10s-4.477-10-10-10h-64c-5.523 0-10 4.477-10 10s4.477 10 10 10z"/><path d="m50 204h64c5.523 0 10-4.477 10-10s-4.477-10-10-10h-64c-5.523 0-10 4.477-10 10s4.477 10 10 10z"/><path d="m434.534 40.079c-11.17-.692-21.796 3.131-29.923 10.77-8.015 7.531-12.611 18.157-12.611 29.151 0 5.523 4.477 10 10 10s10-4.477 10-10c0-5.578 2.24-10.755 6.307-14.578 4.063-3.818 9.386-5.731 14.987-5.382 9.855.611 18.054 8.81 18.665 18.665.526 8.472-4.131 16.162-11.864 19.59-10.992 4.876-18.095 15.683-18.095 27.532v9.173c0 5.523 4.477 10 10 10s10-4.477 10-10v-9.173c0-3.947 2.435-7.577 6.204-9.248 15.219-6.749 24.75-22.467 23.718-39.113-1.246-20.069-17.319-36.142-37.388-37.387z"/><circle cx="432" cy="175" r="10"/></g></g></svg>